<svg width="170" height="39" viewBox="0 0 170 39" fill="none" xmlns="http://www.w3.org/2000/svg">
<path d="M77.216 23.776C77.216 26.08 76.416 28.0533 74.816 29.696C73.216 31.3173 71.2853 32.128 69.024 32.128C66.784 32.128 64.864 31.3173 63.264 29.696C61.664 28.0533 60.864 26.08 60.864 23.776V11.136C60.864 10.6453 61.0347 10.2507 61.376 9.952C61.7173 9.632 62.112 9.472 62.56 9.472C63.0293 9.472 63.4347 9.65333 63.776 10.016C64.1173 10.3573 64.288 10.7627 64.288 11.232V17.12C65.7387 15.9893 67.3173 15.424 69.024 15.424C71.2853 15.424 73.216 16.2453 74.816 17.888C76.416 19.5093 77.216 21.472 77.216 23.776ZM73.856 23.776C73.856 22.432 73.3867 21.2907 72.448 20.352C71.5093 19.392 70.3787 18.912 69.056 18.912C67.7547 18.912 66.6347 19.392 65.696 20.352C64.7573 21.2907 64.288 22.432 64.288 23.776C64.288 25.12 64.7573 26.272 65.696 27.232C66.6347 28.192 67.7547 28.672 69.056 28.672C70.3787 28.672 71.5093 28.192 72.448 27.232C73.3867 26.272 73.856 25.12 73.856 23.776ZM95.7043 23.936C95.7043 26.1973 94.9043 28.128 93.3042 29.728C91.7042 31.328 89.7736 32.128 87.5122 32.128C85.2722 32.128 83.3522 31.328 81.7522 29.728C80.1522 28.128 79.3522 26.1973 79.3522 23.936C79.3522 23.9573 79.3416 21.92 79.3202 17.824C79.3202 17.3547 79.4909 16.9493 79.8322 16.608C80.1736 16.2667 80.5789 16.096 81.0482 16.096C81.4962 16.096 81.8909 16.2453 82.2322 16.544C82.5736 16.8427 82.7442 17.2373 82.7442 17.728L82.7122 23.968C82.7122 25.2907 83.1816 26.4213 84.1202 27.36C85.0589 28.2773 86.1896 28.736 87.5122 28.736C88.8136 28.736 89.9336 28.2773 90.8722 27.36C91.8109 26.4213 92.2802 25.2907 92.2802 23.968C92.2802 23.968 92.2696 21.92 92.2483 17.824C92.2483 17.3547 92.4082 16.9493 92.7282 16.608C93.0696 16.2667 93.4749 16.096 93.9443 16.096C94.3922 16.096 94.7869 16.2453 95.1283 16.544C95.4696 16.8427 95.6402 17.2373 95.6402 17.728C95.6829 21.888 95.7043 23.9573 95.7043 23.936ZM116.431 22.72C116.431 25.1947 115.716 27.3067 114.287 29.056C112.879 30.8053 110.98 31.8507 108.591 32.192V36.672C108.591 37.1413 108.42 37.536 108.079 37.856C107.759 38.1973 107.364 38.368 106.895 38.368C106.426 38.368 106.02 38.1973 105.679 37.856C105.359 37.536 105.199 37.1413 105.199 36.672L105.231 32.192C102.863 31.8293 100.964 30.784 99.535 29.056C98.127 27.3067 97.423 25.1947 97.423 22.72L97.455 17.664C97.455 17.1947 97.6257 16.8 97.967 16.48C98.3083 16.16 98.703 16 99.151 16C99.6203 16 100.015 16.1707 100.335 16.512C100.676 16.832 100.847 17.2267 100.847 17.696L100.815 22.72C100.815 24.5973 101.37 26.1013 102.479 27.232C103.61 28.3413 105.103 28.896 106.959 28.896C108.815 28.896 110.298 28.3413 111.407 27.232C112.516 26.1013 113.071 24.5973 113.071 22.72V17.664C113.071 17.1947 113.231 16.8 113.551 16.48C113.892 16.1387 114.298 15.968 114.767 15.968C115.236 15.968 115.631 16.1387 115.951 16.48C116.271 16.8 116.431 17.1947 116.431 17.664V22.72ZM136.004 24.16C136.004 26.464 135.204 28.4373 133.604 30.08C132.004 31.7013 130.073 32.512 127.812 32.512C126.105 32.512 124.526 31.936 123.076 30.784V36.704C123.076 37.1733 122.905 37.5787 122.564 37.92C122.222 38.2827 121.817 38.464 121.348 38.464C120.9 38.464 120.505 38.304 120.164 37.984C119.822 37.6853 119.652 37.2907 119.652 36.8V24.16C119.652 21.856 120.452 19.8933 122.052 18.272C123.652 16.6293 125.572 15.808 127.812 15.808C130.073 15.808 132.004 16.6293 133.604 18.272C135.204 19.8933 136.004 21.856 136.004 24.16ZM132.644 24.128C132.644 22.784 132.174 21.6427 131.236 20.704C130.297 19.744 129.166 19.264 127.844 19.264C126.542 19.264 125.422 19.744 124.484 20.704C123.545 21.6427 123.076 22.784 123.076 24.128C123.076 25.4933 123.545 26.656 124.484 27.616C125.422 28.5547 126.542 29.024 127.844 29.024C129.166 29.024 130.297 28.5547 131.236 27.616C132.174 26.656 132.644 25.4933 132.644 24.128ZM154.236 25.792L141.724 25.76C142.087 26.656 142.663 27.3813 143.452 27.936C144.263 28.4693 145.159 28.736 146.14 28.736C146.268 28.736 146.588 28.7253 147.1 28.704C147.505 28.704 147.825 28.704 148.06 28.704C148.508 28.7253 148.903 28.896 149.244 29.216C149.585 29.536 149.756 29.9413 149.756 30.432C149.756 31.2853 149.308 31.8187 148.412 32.032C148.092 32.1173 147.324 32.16 146.108 32.16C143.868 32.16 141.948 31.36 140.348 29.76C138.748 28.16 137.948 26.24 137.948 24C137.948 21.7387 138.748 19.808 140.348 18.208C141.948 16.608 143.868 15.808 146.108 15.808C147.772 15.808 149.287 16.2667 150.652 17.184C152.039 18.1013 153.052 19.328 153.692 20.864C154.012 21.632 154.193 22.4427 154.236 23.296C154.236 24.128 154.236 24.96 154.236 25.792ZM150.3 22.336C149.98 21.376 149.457 20.6187 148.732 20.064C148.007 19.488 147.143 19.2 146.14 19.2C145.137 19.2 144.22 19.488 143.388 20.064C142.577 20.64 142.001 21.3973 141.66 22.336H150.3ZM167.58 17.536C167.58 17.9627 167.43 18.3253 167.132 18.624C166.854 18.9227 166.513 19.072 166.108 19.072C165.894 19.072 165.574 19.072 165.148 19.072C164.721 19.0507 164.401 19.04 164.188 19.04C162.886 19.04 161.766 19.52 160.828 20.48C159.91 21.44 159.452 22.6027 159.452 23.968V30.4C159.452 30.848 159.292 31.2107 158.972 31.488C158.652 31.7653 158.289 31.904 157.884 31.904C157.5 31.904 157.158 31.7653 156.86 31.488C156.561 31.2107 156.412 30.8587 156.412 30.432V23.968C156.412 21.856 157.116 20.032 158.524 18.496C159.953 16.9387 161.692 16.096 163.74 15.968H166.492V16.032C167.217 16.2667 167.58 16.768 167.58 17.536Z" fill="white"/>
<path d="M41.8576 23.56C39.0406 23.56 36.753 25.8993 36.753 28.78C36.753 30.1527 37.2635 31.39 38.1143 32.318C36.0346 32.028 34.2196 30.7713 32.7828 29.6113C29.6066 27.04 25.1259 20.0413 24.691 19.326C26.0712 17.4893 27.5647 14.6087 28.0563 12.2887C28.7936 8.78933 26.9409 5 23.4811 5C20.0213 5 18.1685 8.78933 18.9059 12.2887C19.3974 14.6087 20.891 17.4893 22.2711 19.326C21.8363 20.022 17.3556 27.04 14.1794 29.6113C12.7426 30.7713 10.9276 32.028 8.84796 32.318C9.67982 31.39 10.2092 30.1527 10.2092 28.78C10.2092 25.8993 7.92154 23.56 5.10458 23.56C2.28761 23.56 0 25.8993 0 28.78C0 31.6607 2.28761 34 5.10458 34H5.12348C6.56035 34 8.0539 34 8.98028 33.8453C9.75544 33.71 11.438 33.304 13.0829 32.376C14.7844 31.4093 16.3158 30.172 17.6392 28.7027C19.8133 26.286 21.893 23.1153 23.5 20.6213C25.107 23.096 27.1678 26.2667 29.3608 28.7027C30.6842 30.172 32.2156 31.4093 33.9171 32.376C35.562 33.304 37.2446 33.71 38.0197 33.8453C38.9461 34 40.4397 34 41.8765 34H41.8954C44.7124 34 47 31.6607 47 28.78C46.9622 25.8993 44.6935 23.56 41.8576 23.56ZM5.06679 32.2987C3.15728 32.2987 1.62591 30.7133 1.62591 28.78C1.62591 26.8467 3.17619 25.2613 5.06679 25.2613C6.97627 25.2613 8.50767 26.8467 8.50767 28.78C8.50767 30.7133 6.95738 32.2987 5.06679 32.2987ZM20.3994 10.1427C20.3805 8.248 21.8174 6.77867 23.4622 6.74C25.107 6.77867 26.5438 8.248 26.525 10.1427C26.4304 12.9073 24.9368 15.3627 23.4622 17.586C21.9876 15.3627 20.4939 12.9073 20.3994 10.1427ZM41.8576 32.2987C39.9481 32.2987 38.4168 30.7133 38.4168 28.78C38.4168 26.8467 39.967 25.2613 41.8576 25.2613C43.7671 25.2613 45.2985 26.8467 45.2985 28.78C45.2985 30.7133 43.7671 32.2987 41.8576 32.2987Z" fill="white"/>
</svg>
