<svg width="37" height="37" viewBox="0 0 37 37" fill="none" xmlns="http://www.w3.org/2000/svg">
<g clip-path="url(#clip0)">
<path d="M23.1247 7.70828H21.583V6.16662H23.1247V7.70828ZM15.4163 7.70828H13.8747V6.16662H15.4163V7.70828ZM23.9418 3.32995L25.9613 1.31036C26.2543 1.01745 26.2543 0.524115 25.9613 0.215781C25.653 -0.0771354 25.1597 -0.0771354 24.8668 0.215781L22.5851 2.49745C21.3518 1.8962 19.9643 1.54161 18.4997 1.54161C17.0197 1.54161 15.6322 1.8962 14.3988 2.51286L12.1018 0.215781C11.8088 -0.0771354 11.3155 -0.0771354 11.0226 0.215781C10.7143 0.524115 10.7143 1.01745 11.0226 1.31036L13.0422 3.32995C10.7451 5.02578 9.24967 7.70828 9.24967 10.7916H27.7497C27.7497 7.70828 26.208 5.01037 23.9418 3.32995ZM31.6038 12.3333C30.9905 12.3333 30.4023 12.5769 29.9687 13.0106C29.535 13.4443 29.2913 14.0325 29.2913 14.6458V25.4375C29.2913 26.0508 29.535 26.639 29.9687 27.0726C30.4023 27.5063 30.9905 27.75 31.6038 27.75C32.2172 27.75 32.8053 27.5063 33.239 27.0726C33.6727 26.639 33.9163 26.0508 33.9163 25.4375V14.6458C33.9163 14.0325 33.6727 13.4443 33.239 13.0106C32.8053 12.5769 32.2172 12.3333 31.6038 12.3333ZM5.39551 12.3333C4.78219 12.3333 4.194 12.5769 3.76032 13.0106C3.32665 13.4443 3.08301 14.0325 3.08301 14.6458V25.4375C3.08301 26.0508 3.32665 26.639 3.76032 27.0726C4.194 27.5063 4.78219 27.75 5.39551 27.75C6.00882 27.75 6.59701 27.5063 7.03069 27.0726C7.46437 26.639 7.70801 26.0508 7.70801 25.4375V14.6458C7.70801 14.0325 7.46437 13.4443 7.03069 13.0106C6.59701 12.5769 6.00882 12.3333 5.39551 12.3333ZM9.24967 27.75C9.24967 28.1588 9.4121 28.551 9.70122 28.8401C9.99034 29.1292 10.3825 29.2916 10.7913 29.2916H12.333V34.6875C12.333 35.3008 12.5766 35.889 13.0103 36.3226C13.444 36.7563 14.0322 37 14.6455 37C15.2588 37 15.847 36.7563 16.2807 36.3226C16.7144 35.889 16.958 35.3008 16.958 34.6875V29.2916H20.0413V34.6875C20.0413 35.3008 20.285 35.889 20.7187 36.3226C21.1523 36.7563 21.7405 37 22.3538 37C22.9672 37 23.5553 36.7563 23.989 36.3226C24.4227 35.889 24.6663 35.3008 24.6663 34.6875V29.2916H26.208C26.6169 29.2916 27.009 29.1292 27.2981 28.8401C27.5873 28.551 27.7497 28.1588 27.7497 27.75V12.3333H9.24967V27.75Z" fill="#777777"/>
</g>
<defs>
<clipPath id="clip0">
<rect width="37" height="37" fill="white"/>
</clipPath>
</defs>
</svg>
