<svg width="37" height="37" viewBox="0 0 37 37" fill="none" xmlns="http://www.w3.org/2000/svg">
<path d="M28.845 30.0627C27.5654 31.9743 26.2087 33.8397 24.1429 33.8706C22.077 33.9168 21.4141 32.6527 19.0708 32.6527C16.712 32.6527 15.9875 33.8397 14.0295 33.9168C12.01 33.9939 10.4837 31.8818 9.18871 30.0164C6.55246 26.2085 4.53288 19.1939 7.24621 14.4764C8.58746 12.1331 10.9925 10.6531 13.5979 10.6068C15.5712 10.576 17.452 11.9481 18.67 11.9481C19.8725 11.9481 22.1541 10.2985 24.5437 10.5452C25.5458 10.5914 28.3516 10.946 30.1554 13.5977C30.0166 13.6902 26.81 15.571 26.8408 19.4714C26.887 24.1272 30.9262 25.6843 30.9725 25.6997C30.9262 25.8077 30.325 27.9197 28.845 30.0627ZM20.042 5.396C21.1675 4.11641 23.0329 3.14516 24.5745 3.0835C24.775 4.88725 24.0504 6.70641 22.9712 8.00141C21.9075 9.31183 20.15 10.3293 18.4233 10.1906C18.192 8.41766 19.0554 6.56766 20.042 5.396Z" fill="#777777"/>
</svg>
