<svg width="183" height="183" viewBox="0 0 183 183" fill="none" xmlns="http://www.w3.org/2000/svg">
<path d="M91.5 15.25C81.4867 15.25 71.5715 17.2223 62.3204 21.0542C53.0693 24.8861 44.6636 30.5026 37.5831 37.5831C23.2835 51.8828 15.25 71.2772 15.25 91.5C15.25 111.723 23.2835 131.117 37.5831 145.417C44.6636 152.497 53.0693 158.114 62.3204 161.946C71.5715 165.778 81.4867 167.75 91.5 167.75C111.723 167.75 131.117 159.717 145.417 145.417C159.717 131.117 167.75 111.723 167.75 91.5C167.75 81.4867 165.778 71.5715 161.946 62.3204C158.114 53.0693 152.497 44.6636 145.417 37.5831C138.336 30.5026 129.931 24.8861 120.68 21.0542C111.429 17.2223 101.513 15.25 91.5 15.25ZM91.5 152.5C75.3218 152.5 59.8062 146.073 48.3665 134.634C36.9268 123.194 30.5 107.678 30.5 91.5C30.5 75.3218 36.9268 59.8062 48.3665 48.3665C59.8062 36.9268 75.3218 30.5 91.5 30.5C107.678 30.5 123.194 36.9268 134.634 48.3665C146.073 59.8062 152.5 75.3218 152.5 91.5C152.5 107.678 146.073 123.194 134.634 134.634C123.194 146.073 107.678 152.5 91.5 152.5ZM76.25 72.4375C76.25 78.5375 70.9125 83.875 64.8125 83.875C58.7125 83.875 53.375 78.5375 53.375 72.4375C53.375 66.3375 58.7125 61 64.8125 61C70.9125 61 76.25 66.3375 76.25 72.4375ZM91.5 131.379C78.1562 131.379 66.4137 125.812 59.5513 117.577L70.3787 106.75C73.81 112.24 81.9688 116.129 91.5 116.129C101.031 116.129 109.19 112.24 112.621 106.75L123.449 117.577C116.586 125.812 104.844 131.379 91.5 131.379ZM129.625 76.25H99.125V68.625H129.625V76.25Z" fill="#0B8793"/>
</svg>
