<svg width="36" height="36" viewBox="0 0 36 36" fill="none" xmlns="http://www.w3.org/2000/svg">
<path d="M32.0612 21.0597C29.9035 21.0597 28.1512 22.8574 28.1512 25.0712C28.1512 26.126 28.5423 27.0769 29.1939 27.79C27.601 27.5672 26.2108 26.6014 25.1102 25.71C22.6774 23.734 19.2454 18.3557 18.9123 17.806C19.9694 16.3946 21.1134 14.1809 21.4899 12.398C22.0547 9.70888 20.6356 6.79688 17.9855 6.79688C15.3355 6.79688 13.9163 9.70888 14.4811 12.398C14.8576 14.1809 16.0016 16.3946 17.0587 17.806C16.7257 18.3409 13.2936 23.734 10.8608 25.71C9.76025 26.6014 8.37007 27.5672 6.77716 27.79C7.41433 27.0769 7.81978 26.126 7.81978 25.0712C7.81978 22.8574 6.06756 21.0597 3.90989 21.0597C1.75221 21.0597 0 22.8574 0 25.0712C0 27.2849 1.75221 29.0826 3.90989 29.0826H3.92436C5.02495 29.0826 6.16895 29.0826 6.87851 28.9637C7.47225 28.8597 8.76105 28.5477 10.0209 27.8346C11.3242 27.0917 12.4972 26.1409 13.5109 25.0117C15.1762 23.1546 16.7691 20.718 18 18.8014C19.2309 20.7032 20.8093 23.1397 22.4891 25.0117C23.5028 26.1409 24.6758 27.0917 25.9791 27.8346C27.2389 28.5477 28.5277 28.8597 29.1215 28.9637C29.8311 29.0826 30.9751 29.0826 32.0756 29.0826H32.0901C34.2478 29.0826 36 27.2849 36 25.0712C35.9711 22.8574 34.2333 21.0597 32.0612 21.0597ZM3.88095 27.7752C2.41834 27.7752 1.24537 26.5569 1.24537 25.0712C1.24537 23.5854 2.43283 22.3672 3.88095 22.3672C5.34353 22.3672 6.51651 23.5854 6.51651 25.0712C6.51651 26.5569 5.32905 27.7752 3.88095 27.7752ZM15.6251 10.7489C15.6106 9.29288 16.7112 8.16373 17.9711 8.13402C19.2309 8.16373 20.3315 9.29288 20.317 10.7489C20.2446 12.8734 19.1005 14.7603 17.9711 16.4689C16.8415 14.7603 15.6975 12.8734 15.6251 10.7489ZM32.0612 27.7752C30.5985 27.7752 29.4256 26.5569 29.4256 25.0712C29.4256 23.5854 30.6131 22.3672 32.0612 22.3672C33.5237 22.3672 34.6967 23.5854 34.6967 25.0712C34.6967 26.5569 33.5237 27.7752 32.0612 27.7752Z" fill="#777777"/>
</svg>
